<?xml version="1.0"?>
<svg xmlns="http://www.w3.org/2000/svg" xmlns:xlink="http://www.w3.org/1999/xlink" xmlns:svgjs="http://svgjs.com/svgjs" version="1.1" width="512" height="512" x="0" y="0" viewBox="0 0 512.001 512.001" style="enable-background:new 0 0 512 512" xml:space="preserve" class=""><rect width="512.001" height="512.001" fill="#14213d" shape="square"/><g transform="matrix(0.7,0,0,0.7,76.8001647949219,76.80000572204591)">
<g xmlns="http://www.w3.org/2000/svg">
	<g>
		<g>
			<path d="M93.867,469.334h42.667c0,4.713,3.82,8.533,8.533,8.533s8.533-3.82,8.533-8.533h213.333c4.713,0,8.533-3.82,8.533-8.533     s-3.82-8.533-8.533-8.533H153.6c0-4.713-3.821-8.533-8.533-8.533s-8.533,3.821-8.533,8.533H93.867     c-4.713,0-8.533,3.821-8.533,8.533S89.154,469.334,93.867,469.334z" fill="#fca311" data-original="#000000" style="" class=""/>
			<path d="M62.208,466.859c3.346,3.346,8.771,3.346,12.117,0c3.346-3.346,3.346-8.771,0-12.117     c-0.816-0.772-1.772-1.382-2.817-1.796c-2.079-0.85-4.409-0.85-6.487,0c-1.044,0.413-1.999,1.023-2.813,1.796     c-1.559,1.635-2.443,3.799-2.475,6.059c0.012,1.115,0.243,2.216,0.679,3.242C60.847,465.077,61.454,466.029,62.208,466.859z" fill="#fca311" data-original="#000000" style="" class=""/>
			<path d="M36.608,466.859c3.365,3.3,8.752,3.3,12.117,0c3.3-3.365,3.3-8.752,0-12.117c-0.802-0.79-1.762-1.402-2.816-1.796     c-2.079-0.85-4.409-0.85-6.487,0c-1.044,0.413-1.999,1.023-2.813,1.796c-1.559,1.635-2.443,3.799-2.475,6.059     c0.012,1.115,0.243,2.216,0.679,3.242C35.247,465.077,35.854,466.029,36.608,466.859z" fill="#fca311" data-original="#000000" style="" class=""/>
			<path d="M250.084,311.205L197.2,275.946c-5.237-3.491-11.97-3.817-17.52-0.847c-5.549,2.97-9.014,8.753-9.014,15.047v70.513     c-0.006,6.295,3.46,12.08,9.012,15.046c5.548,2.977,12.286,2.652,17.521-0.846l52.883-35.254c4.748-3.165,7.6-8.494,7.6-14.2     S254.832,314.37,250.084,311.205z M187.734,360.659v-70.513l52.883,35.258L187.734,360.659z" fill="#fca311" data-original="#000000" style="" class=""/>
			<path d="M499.304,178.255c-8.92-14.814-20.292-28.006-33.629-39.013l-0.171-0.158c-26.072-22.824-41.138-55.708-41.396-90.358     c0-1.558-0.004-3.033,0.075-4.592c0.445-11.179,2.505-22.236,6.117-32.825c1.127-3.278,0.159-6.912-2.449-9.196     c-2.608-2.284-6.338-2.763-9.438-1.213c-23.832,11.774-44.233,29.482-59.242,51.421c-14.87,21.894-23.025,47.654-23.462,74.117     c-0.066,0.633-0.096,1.268-0.092,1.904c0.013,12.905,1.901,25.74,5.606,38.103c-5.753-9.334-9.26-19.878-10.243-30.798     c-0.242-2.872-1.917-5.428-4.454-6.796c-2.537-1.368-5.593-1.363-8.125,0.012c-24.195,12.848-43.227,33.638-53.894,58.871H42.667     C19.114,187.762,0.028,206.848,0,230.401v238.933c0.028,23.553,19.114,42.639,42.667,42.667h324.267     c23.553-0.028,42.639-19.114,42.667-42.667V343.566c42.547-6.94,78.478-35.394,94.983-75.219     c4.92-12.492,7.436-25.8,7.417-39.225C512.007,211.381,507.647,193.911,499.304,178.255z M392.534,469.334     c-0.015,14.132-11.468,25.585-25.6,25.6H42.667c-14.132-0.015-25.585-11.468-25.6-25.6v-42.667h375.467V469.334z      M392.534,409.601H17.067v-179.2c0.015-14.132,11.468-25.585,25.6-25.6h216.142c-1.877,7.971-2.819,16.132-2.808,24.321     c0,64.417,57.421,116.82,128,116.82c2.904,0,5.754-0.083,8.533-0.246V409.601z M488.692,262.113     c-15.352,36.463-49.359,61.658-88.713,65.725l-0.034,0.012l-0.045-0.004c-5.27,0.705-10.583,1.049-15.9,1.029     c-61.171,0-110.933-44.75-110.933-99.754c-0.029-10.207,1.732-20.339,5.204-29.938l0.017-0.075l0.02-0.038     c7.123-19.862,20.37-36.95,37.829-48.8c5.442,21.314,18.236,40.022,36.126,52.824l0.02,0.022l0.057,0.039l0.013,0.011     l0.007,0.003c4.055,3.001,8.328,5.695,12.785,8.059c3.506,1.863,7.835,1.062,10.442-1.933c2.607-2.995,2.804-7.392,0.475-10.608     c-1.687-2.328-3.21-4.659-4.737-6.991l-0.001-0.001c-12.041-18.818-18.529-40.652-18.717-62.992     c0.101-0.512,0.154-1.032,0.158-1.554c0.301-23.307,7.449-46.011,20.554-65.288c9.533-14.005,21.617-26.091,35.621-35.625     c-0.963,5.656-1.565,11.367-1.804,17.1c-0.092,1.763-0.096,3.529-0.096,5.388c0.233,39.437,17.309,76.895,46.925,102.938     l0.158,0.146c11.894,9.711,22.069,21.354,30.1,34.442c7.033,13.195,10.711,27.919,10.709,42.871     C494.951,240.414,492.834,251.608,488.692,262.113z" fill="#fca311" data-original="#000000" style="" class=""/>
			<path d="M42.667,238.934H76.8c4.713,0,8.533-3.82,8.533-8.533s-3.82-8.533-8.533-8.533H42.667c-4.713,0-8.533,3.82-8.533,8.533     S37.954,238.934,42.667,238.934z" fill="#fca311" data-original="#000000" style="" class=""/>
			<path d="M136.534,221.867h-25.6c-4.713,0-8.533,3.82-8.533,8.533s3.82,8.533,8.533,8.533h25.6c4.713,0,8.533-3.82,8.533-8.533     S141.246,221.867,136.534,221.867z" fill="#fca311" data-original="#000000" style="" class=""/>
			<path d="M136.534,256.001H42.667c-4.713,0-8.533,3.82-8.533,8.533s3.82,8.533,8.533,8.533h93.867c4.713,0,8.533-3.82,8.533-8.533     S141.246,256.001,136.534,256.001z" fill="#fca311" data-original="#000000" style="" class=""/>
		</g>
	</g>
</g>
<g xmlns="http://www.w3.org/2000/svg">
</g>
<g xmlns="http://www.w3.org/2000/svg">
</g>
<g xmlns="http://www.w3.org/2000/svg">
</g>
<g xmlns="http://www.w3.org/2000/svg">
</g>
<g xmlns="http://www.w3.org/2000/svg">
</g>
<g xmlns="http://www.w3.org/2000/svg">
</g>
<g xmlns="http://www.w3.org/2000/svg">
</g>
<g xmlns="http://www.w3.org/2000/svg">
</g>
<g xmlns="http://www.w3.org/2000/svg">
</g>
<g xmlns="http://www.w3.org/2000/svg">
</g>
<g xmlns="http://www.w3.org/2000/svg">
</g>
<g xmlns="http://www.w3.org/2000/svg">
</g>
<g xmlns="http://www.w3.org/2000/svg">
</g>
<g xmlns="http://www.w3.org/2000/svg">
</g>
<g xmlns="http://www.w3.org/2000/svg">
</g>
</g></svg>
